<svg width="361" height="361" viewBox="0 0 361 361" fill="none" xmlns="http://www.w3.org/2000/svg">
<path d="M353.082 87.9682C346.238 79.6059 335.593 74.5235 324.577 74.5235H93.1179L85.9025 47.6341C81.7156 32.0028 67.2849 21.0994 50.5524 21.0994H11.7884C5.33019 21.0994 0 26.1818 0 32.3721C0 38.5478 5.31498 43.6448 11.7884 43.6448H50.5524C56.2535 43.6448 61.1976 47.2793 62.7118 52.7311L109.077 229.375C113.264 245.006 127.695 255.909 144.427 255.909H296.07C312.787 255.909 327.62 245.006 331.42 229.375L359.926 117.429C362.584 107.235 360.312 96.3315 353.082 87.9693L353.082 87.9682ZM336.751 112.316L308.245 224.262C306.731 229.714 301.787 233.349 296.086 233.349H144.428C138.727 233.349 133.783 229.714 132.268 224.262L99.2048 97.4259H324.594C328.394 97.4259 332.195 99.2431 334.482 102.154C336.753 105.05 337.882 108.684 336.753 112.319L336.751 112.316Z" fill="#43464E"/>
<path d="M152.421 270.416C130.759 270.416 112.9 287.495 112.9 308.208C112.9 328.92 130.761 345.999 152.421 345.999C174.082 346.013 191.941 328.934 191.941 308.219C191.941 287.503 174.08 270.413 152.421 270.413V270.416ZM152.421 323.116C143.676 323.116 136.832 316.571 136.832 308.209C136.832 299.847 143.676 293.302 152.421 293.302C161.165 293.302 168.01 299.847 168.01 308.209C167.995 316.216 160.78 323.116 152.421 323.116Z" fill="#43464E"/>
<path d="M283.16 270.416C261.499 270.416 243.64 287.495 243.64 308.207C243.64 328.919 261.5 345.998 283.16 345.998C304.82 345.998 322.68 328.919 322.68 308.207C322.309 287.507 304.82 270.416 283.16 270.416ZM283.16 323.116C274.415 323.116 267.571 316.571 267.571 308.208C267.571 299.846 274.415 293.301 283.16 293.301C291.905 293.301 298.749 299.846 298.749 308.208C298.749 316.216 291.519 323.116 283.16 323.116Z" fill="#43464E"/>
</svg>
