<svg width="218" height="197" viewBox="0 0 218 197" fill="none" xmlns="http://www.w3.org/2000/svg">
<path d="M213.219 40.7805C209.086 35.7307 202.657 32.6616 196.005 32.6616H56.2318L51.8747 16.4236C49.3463 6.98427 40.6319 0.399902 30.5275 0.399902H7.11878C3.21878 0.399902 0 3.4691 0 7.20726C0 10.9366 3.2096 14.0146 7.11878 14.0146H30.5275C33.9703 14.0146 36.9559 16.2094 37.8703 19.5016L65.8694 126.173C68.3978 135.612 77.1122 142.196 87.2165 142.196H178.79C188.885 142.196 197.842 135.612 200.137 126.173L217.351 58.571C218.956 52.4153 217.585 45.8309 213.218 40.7812L213.219 40.7805ZM203.356 55.4838L186.142 123.086C185.228 126.378 182.242 128.573 178.8 128.573H87.2168C83.774 128.573 80.7884 126.378 79.874 123.086L59.9076 46.4918H196.015C198.31 46.4918 200.605 47.5892 201.986 49.3468C203.358 51.0958 204.039 53.2906 203.358 55.4854L203.356 55.4838Z" fill="white"/>
<path d="M92.0437 150.958C78.9629 150.958 68.1782 161.272 68.1782 173.779C68.1782 186.287 78.9638 196.601 92.0437 196.601C105.124 196.609 115.909 186.296 115.909 173.786C115.909 161.276 105.124 150.956 92.0437 150.956V150.958ZM92.0437 182.782C86.7629 182.782 82.6297 178.83 82.6297 173.78C82.6297 168.731 86.7629 164.778 92.0437 164.778C97.3245 164.778 101.458 168.731 101.458 173.78C101.449 178.616 97.0915 182.782 92.0437 182.782Z" fill="white"/>
<path d="M170.995 150.956C157.914 150.956 147.129 161.27 147.129 173.777C147.129 186.285 157.915 196.599 170.995 196.599C184.075 196.599 194.86 186.285 194.86 173.777C194.636 161.277 184.075 150.956 170.995 150.956ZM170.995 182.78C165.714 182.78 161.581 178.828 161.581 173.778C161.581 168.728 165.714 164.776 170.995 164.776C176.276 164.776 180.409 168.728 180.409 173.778C180.409 178.613 176.043 182.78 170.995 182.78Z" fill="white"/>
</svg>
